<?xml version="1.0" encoding="utf-8"?>
<!-- Generator: Adobe Illustrator 22.0.1, SVG Export Plug-In . SVG Version: 6.00 Build 0)  -->
<svg version="1.1" id="Layer_1" xmlns="http://www.w3.org/2000/svg" xmlns:xlink="http://www.w3.org/1999/xlink" x="0px" y="0px"
	 viewBox="0 0 400 400" style="enable-background:new 0 0 400 400;" xml:space="preserve">
<style type="text/css">
	.st0{fill:#AA481E;}
</style>
<g>
	<path class="st0" d="M145.4,192.3c-3.9-0.2-7.3,2.7-7.8,6.6c-0.5,4.3,2.7,7.7,6.2,9.6c0.4,0.2,0.8,0.4,1.3,0.4
		c1.1,0.3,2.6-0.1,4.7-1.5c1.6,0.1,2.2,2,2.6,3.3c0,0.4-0.1,0.7-0.2,1.1c-0.9,3.7,4.9,5.3,5.8,1.6c1.1-4.6-0.1-9-2.6-13
		C153.1,197,150.1,192.5,145.4,192.3z"/>
	<path class="st0" d="M184.3,202.6c-7.6-0.3-21.9,0.9-17.9,12.4c1,2.8,4.6,2.5,5.7,0.5c0.8-0.7,1.8-1.6,2.9-2.9
		c1.5-1.4,4.2-0.6,5.4,0.1c4.1,2.3,6.3,3.1,7.4,3.1c0.6,0.1,1.2,0,1.9-0.4c3.1-1.7,6.7-3,5.6-7.5C194,203.2,188.4,202.8,184.3,202.6
		z"/>
	<path class="st0" d="M246.5,160.7c-11.8-4.9-24.4-0.3-33.7,7.5c-4.6,3.8-5.6,5-2.4,10.1c3.1,4.9,7.4,9,12.3,12.1
		c5,3.2,10.9,5.2,16.8,5.7c7.5,0.5,14.3-2.7,21.3-4.7c1-0.3,1.5-0.9,1.6-1.7c0.1-0.4,0.1-0.8,0-1.2
		C260,177.4,258.1,165.6,246.5,160.7z"/>
	<path class="st0" d="M158.1,161.8c0.2-0.1,0.4-0.1,0.6-0.2c0.7-0.3,1.2-1,1.1-2.1c-1.1-11.4-9.4-26.5-22.5-26.7
		c-8.9-0.2-18.3,5-25.6,9.7c-0.8,0.5-1.5,1.7-1.1,2.7C118,165.2,140.4,165.7,158.1,161.8z"/>
	<path class="st0" d="M375.6,257.8c-4.3-4.9-10.7-7.5-17.1-8.1c-6.9-0.7-20.9,4.5-20.9,4.5c3.4-13.4,8.8-32,12.2-45.4
		c2-7.9,5.9-21.8,5.9-21.8c3.8-12.6,5.4-24.1,5.3-36.4c-0.2-15.6-6.1-29.7-12.5-43.9c-1.1-2.5-2.3-4.9-3.7-7.2
		c-5.5-9.8-19.3-25.9-28.5-35.3c-6.6-6.7-17.1-13-17.1-13c-7.9-5.6-16.2-10.5-25-14.6c-21.2-9.9-45.4-9.3-68.8-10.3
		c-14.6-0.7-29.3-0.1-43.6,3.1c-9,2-17.7,5.3-26.2,9c-19.6,8.7-38.1,20.4-53,35.8c-4.7,4.8-9,10.1-12.2,16
		c-2.8,5.2-4.5,10.9-6.3,16.6c-2.3,7.3-4.6,14.7-6.8,22c0,0-2.5,9.4-4.2,14.6c-2.4,7.5-4.9,15.1-8,22.3l0.7-2.5
		c0.7-3.2-0.8-6.8-1.8-9.9c-0.5-1.5-1.2-3-2.4-4c-1.4-1.1-3.2-1.5-5-1.7c-4.1-0.5-8.4-0.2-12.4,0.9c-2.1,0.6-4.7,2.2-4.1,4.3
		c0.1,0.5,0.5,1,0.9,1.4c0.4,1.6,1.3,4.6,3,10.4c1.3,4.3,2.8,9.3,3.8,12.7l0,0c-1.2,2.2-2.4,4.4-3.5,6.6c-2,4.5-3.3,9.5-2.3,14.3
		c0.5,2.4,1.5,4.7,2.6,6.9c2,4.1,4.2,8.1,6.6,12l1.1-4c-0.3,1.9-0.7,3.8-1.2,5.7c0,0,2.8,52.6,8.4,76.7c0.9,3.7,1.7,7.4,3.2,10.8
		c1.4,3.2,4.8,22.3,24.8,40.3c14,12.6,14.1,12.1,33.6,19.5c20.1,7.6,70.9,10.8,104.6,4.9c27-4.8,33.1-3.9,56.2-16.7
		c26.6-14.8,25.4-17.7,32.8-30.2c6.7-11.3,7-11.3,9.9-17.3c1.2-2.4,1.7-4.8,3-7c0.5-1,1-1.8,1.6-2.6l0,0c-0.4,0.7-0.9,1.4-1.3,2
		c-0.1,0.2-0.2,0.4-0.3,0.6c-2.3,4.5-3.4,11-2.3,14.9c0.9,3.4,2.2,6.7,4.5,9.4c5.3,6.3,15.1,7.3,22.8,4.1c2.2-0.9,4.2-2.1,6.2-3.3
		c2.6-1.6,5.2-3.3,7.4-5.5c4.2-4.1,6.7-9.6,9.7-14.6c4.1-7.1,9.2-13.6,15.1-19.4c3-2.9,6.3-5.7,8-9.5
		C381.5,270,379.8,262.6,375.6,257.8z M85.1,153.9c0.5-6.2,1.5-12.4,4.1-18c4.5-9.8,13.1-17,21.4-23.9c2.1-1.8,4.3-3.5,6.6-5.1
		c4.6-3.1,9.7-5.2,14.8-7.2c4.3-1.7,8.8-3.3,13.3-2.5c2.4,0.4,4.7,1.5,6.8,2.7c11.1,6.3,19.5,17.1,23,29.3c2.2,7.7-1.2,20-15.3,33.7
		c-15.9,6-49.3,8.3-61.3,7.1c-3.7-0.4-7.7-0.9-10.3-3.5C84.9,163.5,84.7,158.4,85.1,153.9z M234.1,295.3
		c-5.5,9.5-7.5,11.4-17.3,22.1c-7.5,8.3-9.8,11.5-26.8,19.7c-5,2.5-10.8,3.1-16.2,4.3c-13.8,3-15.5,3-31.7,3
		c-21.9,0.1-28.4-0.5-46.3-9.7c-12.6-6.5-17.2-11.1-21.8-16.4c-3.6-4.2-6.6-9.1-9.5-14c-3.3-5.5-5.9-12.1-7.5-18.3
		c-3.8-15-5.6-30.2-3.2-45.4l2.2-8c1.9,1.3,4.2,2.5,6.7,3.8c8.6,4.5,17.3,9,25.9,13.3c18.5,9.3,37.4,20.1,57.2,26.4
		c20,6.3,42,11.2,63.1,12.2c8.9,0.4,19-0.2,28.1-2.9L234.1,295.3z M238.8,280c-10.6,3.8-23,4.1-33.3,3.3
		c-19.4-1.4-39.7-5.9-58.2-11.8c-18.1-5.8-35.3-15.5-52.3-24c-7.3-3.6-14.6-7.3-21.8-11.1c-4.8-2.5-11.5-4.7-15.8-8.7
		c1.7-5.7,6-10.4,10.3-14.5c4.4-4.2,9-8.2,14.3-11.1c4.7-2.6,9.9-4.3,15.2-5.5c7.5-1.7,15.3-2.3,22.9-1.9c0,0,12.5-14.7,22.2-16.8
		c5.7-1.3,11.7-0.7,17,1.7l37.1,16.1c5.1,1.9,9,6,12,10.5s5.3,9.4,8.5,13.8c7.4,10.4,19.1,17.9,23.9,29.8c1.9,4.8,2.6,10,2.6,15.2
		L238.8,280z M278.7,208.5c-6.2,8.1-17.4,11.3-27.5,9.7c-10.1-1.7-19-7.5-26.3-14.7l-24.3-38.2c1-8.8,2.2-17.9,7.1-25.3
		c5-7.5,13.2-12.2,21.4-15.6c3.1-1.3,6.2-2.4,9.5-3.1s6.8-0.9,10.2-1c2.1,0,4.3,0.1,6.4,0.6c4.8,1.2,8.8,4.5,12.5,7.7
		c2.6,2.3,5.3,4.5,7.2,7.4c2.1,3.3,3.2,7.1,4.1,10.9c2.6,10.7,4.3,21.5,5.2,32.5C285.1,189.4,284.9,200.4,278.7,208.5z M371.6,273.5
		c-1.2,2.2-2.3,4.4-3.5,6.5l-14.6,0.7c0.1,0.4,0.1,0.9,0.2,1.3c0.9,6.4-1.8,11.3-4.9,16.9c-2.3,4.2-3.3,9.2-8.1,9.7
		c-2.8,0.3-5.7-0.1-8.3,0.7c-4.2,1.3-7.3,5.7-11.7,5.9c-4.1,0.2-7.6-3.5-8.6-7.5s1.2-5.7,2.1-9.8l21.4-18c2.7-5.3,7.3-9.5,12.7-12
		c1-0.5,2-0.9,3.1-1.2l0.3-0.2v0.1c5-1.7,10.5-2.1,15.7-1.4c2.1,0.3,4.6,1,5.3,3C373.3,270.1,372.4,271.9,371.6,273.5z"/>
</g>
</svg>
