<?xml version="1.0" encoding="utf-8"?>
<!-- Generator: Adobe Illustrator 22.0.1, SVG Export Plug-In . SVG Version: 6.00 Build 0)  -->
<svg version="1.1" id="Layer_1" xmlns="http://www.w3.org/2000/svg" xmlns:xlink="http://www.w3.org/1999/xlink" x="0px" y="0px"
	 viewBox="0 0 400 400" style="enable-background:new 0 0 400 400;" xml:space="preserve">
<style type="text/css">
	.st0{fill:#FFFFFF;}
</style>
<g>
	<path class="st0" d="M200.1,117c27,0,30.2,0.1,40.9,0.6c9.9,0.5,15.2,2.1,18.8,3.5c4.7,1.8,8.1,4,11.6,7.6
		c3.5,3.5,5.7,6.9,7.6,11.6c1.4,3.6,3,8.9,3.5,18.8c0.5,10.7,0.6,13.9,0.6,40.9c0,27-0.1,30.2-0.6,40.9c-0.5,9.9-2.1,15.2-3.5,18.8
		c-1.8,4.7-4,8.1-7.6,11.6c-3.5,3.5-6.9,5.7-11.6,7.6c-3.6,1.4-8.9,3-18.8,3.5c-10.7,0.5-13.9,0.6-40.9,0.6s-30.2-0.1-40.9-0.6
		c-9.9-0.5-15.2-2.1-18.8-3.5c-4.7-1.8-8.1-4-11.6-7.6c-3.5-3.5-5.7-6.9-7.6-11.6c-1.4-3.6-3-8.9-3.5-18.8
		c-0.5-10.7-0.6-13.9-0.6-40.9c0-27,0.1-30.2,0.6-40.9c0.5-9.9,2.1-15.2,3.5-18.8c1.8-4.7,4-8.1,7.6-11.6c3.5-3.5,6.9-5.7,11.6-7.6
		c3.6-1.4,8.9-3,18.8-3.5C169.8,117.1,173,117,200.1,117 M200.1,98.7c-27.5,0-31,0.1-41.8,0.6c-10.8,0.5-18.1,2.2-24.6,4.7
		c-6.7,2.6-12.3,6.1-17.9,11.7c-5.6,5.6-9.1,11.3-11.7,17.9c-2.5,6.4-4.2,13.8-4.7,24.6c-0.5,10.8-0.6,14.3-0.6,41.8
		c0,27.5,0.1,31,0.6,41.8c0.5,10.8,2.2,18.1,4.7,24.6c2.6,6.7,6.1,12.3,11.7,17.9c5.6,5.6,11.3,9.1,17.9,11.7
		c6.4,2.5,13.8,4.2,24.6,4.7c10.8,0.5,14.3,0.6,41.8,0.6s31-0.1,41.8-0.6c10.8-0.5,18.1-2.2,24.6-4.7c6.7-2.6,12.3-6.1,17.9-11.7
		c5.6-5.6,9.1-11.3,11.7-17.9c2.5-6.4,4.2-13.8,4.7-24.6c0.5-10.8,0.6-14.3,0.6-41.8s-0.1-31-0.6-41.8c-0.5-10.8-2.2-18.1-4.7-24.6
		c-2.6-6.7-6.1-12.3-11.7-17.9c-5.6-5.6-11.3-9.1-17.9-11.7c-6.4-2.5-13.8-4.2-24.6-4.7C231,98.8,227.6,98.7,200.1,98.7L200.1,98.7z
		"/>
	<path class="st0" d="M200.1,148c-28.7,0-52,23.3-52,52s23.3,52,52,52s52-23.3,52-52S228.8,148,200.1,148z M200.1,233.8
		c-18.6,0-33.8-15.1-33.8-33.8s15.1-33.8,33.8-33.8c18.6,0,33.8,15.1,33.8,33.8S218.7,233.8,200.1,233.8z"/>
	<circle class="st0" cx="254.1" cy="145.9" r="12.2"/>
</g>
</svg>
