<?xml version="1.0" encoding="utf-8"?>
<!-- Generator: Adobe Illustrator 22.0.1, SVG Export Plug-In . SVG Version: 6.00 Build 0)  -->
<svg version="1.1" id="Layer_1" xmlns="http://www.w3.org/2000/svg" xmlns:xlink="http://www.w3.org/1999/xlink" x="0px" y="0px"
	 viewBox="0 0 400 400" style="enable-background:new 0 0 400 400;" xml:space="preserve">
<style type="text/css">
	.st0{fill:#FFE7C7;}
</style>
<g>
	<path class="st0" d="M200.1,87.7c36.6,0,40.9,0.1,55.3,0.8c13.4,0.7,20.6,2.8,25.4,4.7c6.4,2.5,11,5.4,15.7,10.3
		c4.7,4.7,7.7,9.3,10.3,15.7c1.9,4.9,4,12.1,4.7,25.4c0.7,14.5,0.8,18.8,0.8,55.3s-0.1,40.9-0.8,55.3c-0.7,13.4-2.8,20.6-4.7,25.4
		c-2.5,6.4-5.4,11-10.3,15.7c-4.7,4.7-9.3,7.7-15.7,10.3c-4.9,1.9-12.1,4-25.4,4.7c-14.5,0.7-18.8,0.8-55.3,0.8s-40.9-0.1-55.3-0.8
		c-13.4-0.7-20.6-2.8-25.4-4.7c-6.4-2.5-11-5.4-15.7-10.3c-4.7-4.7-7.7-9.3-10.3-15.7c-1.9-4.9-4-12.1-4.7-25.4
		c-0.7-14.5-0.8-18.8-0.8-55.3s0.1-40.9,0.8-55.3c0.7-13.4,2.8-20.6,4.7-25.4c2.5-6.4,5.4-11,10.3-15.7c4.7-4.7,9.3-7.7,15.7-10.3
		c4.9-1.9,12.1-4,25.4-4.7C159.1,87.8,163.4,87.7,200.1,87.7 M200.1,62.9c-37.2,0-42,0.1-56.6,0.8c-14.6,0.7-24.5,2.9-33.3,6.4
		c-9.1,3.5-16.7,8.2-24.2,15.8c-7.5,7.6-12.3,15.2-15.8,24.2c-3.4,8.6-5.7,18.7-6.4,33.3C63.1,158,63,162.8,63,200s0.1,42,0.8,56.6
		c0.7,14.6,2.9,24.5,6.4,33.3c3.5,9.1,8.2,16.7,15.8,24.2c7.6,7.5,15.3,12.3,24.2,15.8c8.6,3.4,18.7,5.7,33.3,6.4s19.3,0.8,56.6,0.8
		s42-0.1,56.6-0.8c14.6-0.7,24.5-2.9,33.3-6.4c9.1-3.5,16.7-8.2,24.2-15.8s12.3-15.3,15.8-24.2c3.4-8.6,5.7-18.7,6.4-33.3
		c0.7-14.6,0.8-19.3,0.8-56.6s-0.1-42-0.8-56.6c-0.7-14.6-2.9-24.5-6.4-33.3c-3.5-9.1-8.2-16.7-15.8-24.2s-15.3-12.3-24.2-15.8
		c-8.6-3.4-18.7-5.7-33.3-6.4C241.9,63,237.3,62.9,200.1,62.9L200.1,62.9z"/>
	<path class="st0" d="M200.1,129.6c-38.8,0-70.4,31.5-70.4,70.4s31.5,70.4,70.4,70.4s70.4-31.5,70.4-70.4S238.9,129.6,200.1,129.6z
		 M200.1,245.7c-25.2,0-45.7-20.4-45.7-45.7s20.4-45.7,45.7-45.7c25.2,0,45.7,20.4,45.7,45.7S225.3,245.7,200.1,245.7z"/>
	<ellipse class="st0" cx="273.2" cy="126.7" rx="16.5" ry="16.5"/>
</g>
</svg>
