<?xml version="1.0" encoding="utf-8"?>
<!-- Generator: Adobe Illustrator 22.0.1, SVG Export Plug-In . SVG Version: 6.00 Build 0)  -->
<svg version="1.1" id="Layer_1" xmlns="http://www.w3.org/2000/svg" xmlns:xlink="http://www.w3.org/1999/xlink" x="0px" y="0px"
	 viewBox="0 0 400 400" style="enable-background:new 0 0 400 400;" xml:space="preserve">
<style type="text/css">
	.st0{fill:#FFFFFF;}
</style>
<path class="st0" d="M297,151.3c-2.3-8.7-9.2-15.6-17.9-17.9c-15.8-4.2-79.1-4.2-79.1-4.2s-63.3,0-79.1,4.2
	c-8.7,2.3-15.6,9.2-17.9,17.9c-4.2,15.8-4.2,48.7-4.2,48.7s0,32.9,4.2,48.7c2.3,8.7,9.2,15.6,17.9,17.9c15.8,4.2,79.1,4.2,79.1,4.2
	s63.3,0,79.1-4.2c8.7-2.3,15.6-9.2,17.9-17.9c4.2-15.8,4.2-48.7,4.2-48.7S301.2,167.1,297,151.3z M179.8,230.4v-60.7l52.6,30.4
	L179.8,230.4z"/>
</svg>
